<?xml version="1.0" encoding="UTF-8" standalone="no"?>
<svg width="128px" height="128px" viewBox="0 0 128 128" version="1.1" xmlns="http://www.w3.org/2000/svg"
     xmlns:xlink="http://www.w3.org/1999/xlink">
    <!-- Generator: Sketch 3.6.1 (26313) - http://www.bohemiancoding.com/sketch -->
    <title>Slice 1</title>
    <desc>Created with Sketch.</desc>
    <defs></defs>
    <g id="Page-1" stroke="none" stroke-width="1" fill="none" fill-rule="evenodd">
        <g id="Code_Icon-01-01" transform="translate(11.000000, 10.000000)" fill="#0A0A08">
            <path d="M104.360011,65.5124421 C104.360011,67.1994561 102.991174,68.5720912 101.308828,68.5720912 L5.48259538,68.5720912 C3.80024907,68.5720912 2.43141186,67.1994561 2.43141186,65.5124421 L2.43141186,5.37121404 C2.43141186,3.6842 3.80024907,2.31156491 5.48259538,2.31156491 L101.308828,2.31156491 C102.991174,2.31156491 104.360011,3.6842 104.360011,5.37121404 L104.360011,65.5124421 L104.360011,65.5124421 Z M70.0870202,83.4878807 L36.2276554,83.4878807 L43.2562473,70.8668281 L63.0584283,70.8668281 L70.0870202,83.4878807 L70.0870202,83.4878807 Z M101.308828,0.0168280702 L5.48259538,0.0168280702 C2.53839398,0.0168280702 0.143024227,2.41884386 0.143024227,5.37121404 L0.143024227,65.5124421 C0.143024227,68.4648123 2.53839398,70.8668281 5.48259538,70.8668281 L40.6352806,70.8668281 L33.2792586,84.0757158 C33.0813131,84.4312088 33.0858898,84.864914 33.2912726,85.2160088 C33.4966554,85.5671035 33.8721417,85.7826175 34.2781398,85.7826175 L72.0365358,85.7826175 C72.4423432,85.7826175 72.8180202,85.5671035 73.023403,85.2160088 C73.2287857,84.864914 73.2333625,84.4312088 73.035417,84.0757158 L65.6793949,70.8668281 L101.308828,70.8668281 C104.253029,70.8668281 106.648399,68.4648123 106.648399,65.5124421 L106.648399,5.37121404 C106.648399,2.41884386 104.253029,0.0168280702 101.308828,0.0168280702 L101.308828,0.0168280702 Z"
                  id="Fill-4"></path>
            <path d="M11.1812527,106.626477 L15.9399548,96.3001614 L89.9225735,96.3001614 L95.0714457,106.626477 L11.1812527,106.626477 L11.1812527,106.626477 Z M91.652976,94.6395368 C91.4594165,94.2511526 91.0629534,94.0054246 90.6296853,94.0054246 L15.2082428,94.0054246 C14.7620072,94.0054246 14.3567719,94.2653035 14.1695055,94.6716632 L8.35318697,107.292716 C8.18956725,107.648018 8.2177907,108.062218 8.42794096,108.391895 C8.63828193,108.721763 9.00156346,108.921214 9.39192426,108.921214 L96.9227513,108.921214 L96.9265653,108.921214 C97.5585417,108.921214 98.0707591,108.407575 98.0707591,107.773846 C98.0707591,107.557184 98.0106889,107.354482 97.9063766,107.181039 L91.652976,94.6395368 L91.652976,94.6395368 Z"
                  id="Fill-5"></path>
        </g>
    </g>
</svg>