<?xml version="1.0" encoding="UTF-8" standalone="no"?>
<svg width="128px" height="128px" viewBox="0 0 128 128" version="1.1" xmlns="http://www.w3.org/2000/svg"
     xmlns:xlink="http://www.w3.org/1999/xlink">
    <!-- Generator: Sketch 3.6.1 (26313) - http://www.bohemiancoding.com/sketch -->
    <title>Slice 1</title>
    <desc>Created with Sketch.</desc>
    <defs></defs>
    <g id="Page-1" stroke="none" stroke-width="1" fill="none" fill-rule="evenodd">
        <g id="Image_Icon-01-01" transform="translate(4.000000, 11.000000)">
            <path d="M18.4325081,78.1292024 L19.3688599,78.1292024 L18.4325081,75.8984957 L18.4325081,78.1292024"
                  id="Fill-1" fill="#D52D58"></path>
            <path id="Fill-2" fill="#D52D58"
                  d="M17.5246547,59.7344013 L17.5246547,58.2730442 L17.5176547,58.2765333"></path>
            <path d="M110.20202,69.1995913 L110.20202,49.9024667 L117.104365,66.3503423 L110.20202,69.1995913 L110.20202,69.1995913 Z M95.4150489,25.4265281 L101.342345,25.4265281 L101.342345,70.6341985 L87.3574593,70.6341985 L87.3574593,63.8034832 L91.2211075,67.6143706 C91.449772,67.84 91.7489902,67.9526208 92.048013,67.9526208 C92.3491857,67.9526208 92.6503583,67.8382554 92.8796091,67.6095247 C93.3361564,67.1540015 93.3340065,66.4177985 92.8747231,65.9649891 L87.3574593,60.522941 L87.3574593,58.2941727 L94.3661238,64.9176735 C94.8347883,65.3605971 95.5772638,65.3433453 96.0238436,64.8779363 C96.4708143,64.4131089 96.4530293,63.6770997 95.9837785,63.2337884 L87.3574593,55.0810867 L87.3574593,52.8094799 L92.9476221,57.7118784 C93.1710098,57.9076564 93.4481433,58.0034132 93.7241042,58.0034132 C94.0485342,58.0034132 94.3714007,57.8710207 94.6031922,57.6108879 C95.0317915,57.1297779 94.9864495,56.3949318 94.5011726,55.96926 L87.3574593,49.7043625 L87.3574593,46.8198347 L91.170684,51.0848885 C91.600456,51.5659985 92.341759,51.6098063 92.8258632,51.1835529 C93.3105537,50.7574933 93.3549186,50.0222596 92.9255375,49.5419249 L87.3574593,43.313857 L87.3574593,40.8051843 L89.5778502,43.4910265 C89.8094463,43.7715124 90.145798,43.9166983 90.4850814,43.9166983 C90.7465798,43.9166983 91.0100326,43.8304397 91.2279479,43.6530764 C91.7288599,43.2458193 91.8021498,42.5129116 91.3913355,42.0162944 L87.0916612,36.8148013 C86.8710098,36.5482718 86.5428664,36.3922309 86.1949837,36.3893233 L86.1848208,36.3893233 C85.8408469,36.3893233 85.5140717,36.5389675 85.2910749,36.7992941 L81.0566775,41.7422052 C80.6376547,42.2316503 80.6974593,42.9655272 81.1911401,43.3815071 C81.6842345,43.7972931 82.4247557,43.7377843 82.8439739,43.2481454 L85.0121824,40.7173749 L85.0121824,43.3237428 L79.4978502,49.6842032 C79.0757003,50.1715161 79.1314007,50.9055868 79.6221498,51.3244743 C79.8435831,51.5130803 80.1158306,51.6055418 80.3865147,51.6055418 C80.7162215,51.6055418 81.0441694,51.4684972 81.2761564,51.2008046 L85.0121824,46.8917492 L85.0121824,49.9358071 L78.1293811,55.9671277 C77.6441042,56.3926057 77.5983713,57.1274519 78.0269707,57.6085619 C78.4561564,58.0902534 79.1966775,58.1352242 79.6821498,57.7105215 L85.0121824,53.0395675 L85.0121824,55.0739146 L76.0688599,63.3549382 C75.5955049,63.7934035 75.5699023,64.5288311 76.011987,64.9986984 C76.2428013,65.2440994 76.5555049,65.367963 76.8691857,65.367963 C77.1558958,65.367963 77.4429967,65.2644526 77.669316,65.0551058 L85.0121824,58.256374 L85.0121824,60.522941 L79.56,65.9002466 C79.1007166,66.3530561 79.0989577,67.089259 79.5555049,67.5447822 C80.0122476,68.0006931 80.7547231,68.0020499 81.2136156,67.5496282 L85.0121824,63.8034832 L85.0121824,70.6341985 L72.6334202,70.6341985 L64.2652769,59.5913476 C70.1171336,57.8750914 74.4003909,52.4985611 74.4003909,46.1458543 C74.4003909,38.4145599 68.0587622,32.124851 60.2634528,32.124851 C55.2684039,32.124851 50.8737459,34.7098966 48.358241,38.5996768 L42.0406515,30.2630212 C41.823127,29.9757508 41.4842345,29.8043966 41.1218893,29.7987752 C40.7562215,29.7945108 40.4149837,29.9540408 40.1886645,30.2341391 L19.8656678,55.3718462 L19.8656678,25.4265281 L92.8747231,25.4265281 L95.4150489,25.4265281 Z M56.5628013,80.3905357 C56.4117264,78.7969799 55.8742671,77.581993 54.9557003,76.7740694 C53.8117915,75.7670724 52.5037134,75.7757952 52.1288599,75.8031266 L44.7230619,75.8031266 C45.7747231,74.5158375 47.5229316,72.9602743 49.8330293,72.9602743 L101.342345,72.9602743 L101.342345,80.3905357 L56.5628013,80.3905357 L56.5628013,80.3905357 Z M52.1783062,78.1292024 L52.2265798,78.1355991 L52.3082736,78.1222241 C52.3985668,78.1189289 52.9567427,78.1082677 53.4232573,78.5352964 C53.8301629,78.9078562 54.0945928,79.5413242 54.2046254,80.3905357 L19.8656678,80.3905357 L19.8656678,78.1292024 L52.1783062,78.1292024 L52.1783062,78.1292024 Z M49.8805212,40.6084371 C51.8745928,36.9456431 55.7806515,34.4509268 60.2634528,34.4509268 C66.7655375,34.4509268 72.055114,39.6971969 72.055114,46.1458543 C72.055114,51.7518907 68.0570033,56.4470747 62.7402606,57.5790982 L49.8805212,40.6084371 L49.8805212,40.6084371 Z M60.0001954,57.8341912 L69.6998697,70.6341985 L49.8330293,70.6341985 C45.4999349,70.6341985 42.7934853,74.2849745 41.8551792,75.8031266 L19.8656678,75.8031266 L19.8656678,59.090466 L41.0734202,32.8579526 L60.0001954,57.8341912 L60.0001954,57.8341912 Z M103.687622,74.4086442 L103.687622,24.2634903 C103.687622,23.6211057 103.162476,23.1004524 102.514984,23.1004524 L18.6930293,23.1004524 C18.0455375,23.1004524 17.5203909,23.6211057 17.5203909,24.2634903 L17.5203909,81.5535736 C17.5203909,82.1959582 18.0455375,82.7166115 18.6930293,82.7166115 L102.514984,82.7166115 C103.162476,82.7166115 103.687622,82.1959582 103.687622,81.5535736 L103.687622,74.4086442 Z M107.856743,72.6867666 L107.856743,87.5697747 L13.0614332,87.5697747 L13.0614332,18.6780008 L107.856743,18.6780008 L107.856743,64.9108891 L107.856743,72.6867666 Z M31.6764821,89.8958505 L41.2272313,89.8958505 L33.0867752,93.2562546 L31.6764821,89.8958505 L31.6764821,89.8958505 Z M29.5864495,102.477594 L24.306645,89.8958505 L29.1361564,89.8958505 L31.3721824,95.2237271 C31.6209772,95.8166826 32.3077524,96.0975562 32.9054072,95.8506045 L47.3312052,89.8958505 L60.0656678,89.8958505 L29.5864495,102.477594 L29.5864495,102.477594 Z M89.0667752,16.351925 L75.1645603,16.351925 L87.0138762,11.4605753 L89.0667752,16.351925 L89.0667752,16.351925 Z M90.4137459,2.74728933 L96.1227362,16.351925 L91.607101,16.351925 L88.7284691,9.49310292 C88.4796743,8.8999536 87.7932899,8.61927379 87.1950489,8.8662255 L69.0611726,16.351925 L57.4569381,16.351925 L90.4137459,2.74728933 L90.4137459,2.74728933 Z M10.7161564,40.4366951 L10.7161564,57.5100913 L2.89583062,38.8745414 L10.7161564,35.6463359 L10.7161564,40.4366951 L10.7161564,40.4366951 Z M119.72013,66.5302255 L110.20202,43.8488544 L110.20202,17.5149629 C110.20202,16.8725783 109.677264,16.351925 109.029381,16.351925 L98.6630619,16.351925 L92.1285342,0.779816904 C91.879544,0.186861421 91.1929642,-0.0938183896 90.595114,0.152939482 L51.353355,16.351925 L11.8887948,16.351925 C11.2411075,16.351925 10.7161564,16.8725783 10.7161564,17.5149629 L10.7161564,33.1268082 L0.912117264,37.1739862 C0.314267101,37.420744 0.0310749186,38.1018966 0.280065147,38.694852 L10.7161564,63.5638974 L10.7161564,88.7328126 C10.7161564,89.3751972 11.2411075,89.8958505 11.8887948,89.8958505 L21.7663192,89.8958505 L27.8716612,104.445067 C28.1206515,105.038022 28.8070358,105.318508 29.4050814,105.07175 L66.1686645,89.8958505 L109.029381,89.8958505 C109.677264,89.8958505 110.20202,89.3751972 110.20202,88.7328126 L110.20202,71.7187314 L119.088078,68.0505099 C119.685928,67.8041397 119.969121,67.1229871 119.72013,66.5302255 L119.72013,66.5302255 Z"
                  id="Fill-3" fill="#0A0A08"></path>
        </g>
    </g>
</svg>