<?xml version="1.0" encoding="UTF-8" standalone="no"?>
<svg width="128px" height="128px" viewBox="0 0 128 128" version="1.1" xmlns="http://www.w3.org/2000/svg"
     xmlns:xlink="http://www.w3.org/1999/xlink">
    <!-- Generator: Sketch 3.6.1 (26313) - http://www.bohemiancoding.com/sketch -->
    <title>Slice 1</title>
    <desc>Created with Sketch.</desc>
    <defs></defs>
    <g id="Page-1" stroke="none" stroke-width="1" fill="none" fill-rule="evenodd">
        <g id="Browser_Icon-01" transform="translate(9.000000, 19.000000)" fill="#0A0A08">
            <path d="M107.692308,24.4061774 L2.30769231,24.4061774 L2.30769231,8.79127297 C2.30769231,7.51218035 3.34288462,6.47162488 4.61538462,6.47162488 L105.384615,6.47162488 C106.657115,6.47162488 107.692308,7.51218035 107.692308,8.79127297 L107.692308,24.4061774 L107.692308,24.4061774 Z M107.692308,85.9035279 C107.692308,87.1828138 106.657115,88.223176 105.384615,88.223176 L4.61538462,88.223176 C3.34288462,88.223176 2.30769231,87.1828138 2.30769231,85.9035279 L2.30769231,26.7258255 L107.692308,26.7258255 L107.692308,85.9035279 L107.692308,85.9035279 Z M105.384615,4.15197678 L4.61538462,4.15197678 C2.07038462,4.15197678 0,6.23308773 0,8.79127297 L0,85.9035279 C0,88.4619064 2.07038462,90.542824 4.61538462,90.542824 L105.384615,90.542824 C107.929423,90.542824 110,88.4619064 110,85.9035279 L110,8.79127297 C110,6.23308773 107.929423,4.15197678 105.384615,4.15197678 L105.384615,4.15197678 Z"
                  id="Fill-1"></path>
            <path d="M63.5898077,13.7847021 L10.3846154,13.7847021 C9.7475,13.7847021 9.23076923,14.30411 9.23076923,14.9445261 C9.23076923,15.5851356 9.7475,16.1043502 10.3846154,16.1043502 L63.5898077,16.1043502 C64.2269231,16.1043502 64.7436538,15.5851356 64.7436538,14.9445261 C64.7436538,14.30411 64.2269231,13.7847021 63.5898077,13.7847021 L33.4973096,0.0630568777"
                  id="Fill-2"></path>
            <path d="M77.7884615,12.9148341 C76.6732692,12.9148341 75.7692308,13.8235562 75.7692308,14.9445261 C75.7692308,16.0654961 76.6732692,16.9742182 77.7884615,16.9742182 C78.9036538,16.9742182 79.8076923,16.0654961 79.8076923,14.9445261 C79.8076923,13.8235562 78.9036538,12.9148341 77.7884615,12.9148341"
                  id="Fill-3"></path>
            <path d="M88.1730769,12.9148341 C87.0578846,12.9148341 86.1538462,13.8235562 86.1538462,14.9445261 C86.1538462,16.0654961 87.0578846,16.9742182 88.1730769,16.9742182 C89.2882692,16.9742182 90.1923077,16.0654961 90.1923077,14.9445261 C90.1923077,13.8235562 89.2882692,12.9148341 88.1730769,12.9148341"
                  id="Fill-4"></path>
            <path d="M98.5576923,12.9148341 C97.4425,12.9148341 96.5384615,13.8235562 96.5384615,14.9445261 C96.5384615,16.0654961 97.4425,16.9742182 98.5576923,16.9742182 C99.6728846,16.9742182 100.576923,16.0654961 100.576923,14.9445261 C100.576923,13.8235562 99.6728846,12.9148341 98.5576923,12.9148341"
                  id="Fill-5"></path>
        </g>
    </g>
</svg>